# xmcd
#
# Track frame offsets:
#	150
#	12410
#	29409
#	43994
#	58773
#	81525
#	97115
#	112359
#	135817
#	152093
#	168705
#
# Disc length: 2437 seconds
#
# Revision: 0
# Processed by: cddbd v1.5.2PL0 Copyright (c) Steve Scherf et al.
# Submitted via: audiograbber 1.83.01
#
DISCID=9d09830b
DTITLE=Plastic Bertrand - Bandit Dandy
DYEAR=2008
DGENRE=chanson
TTITLE0=Edgar Allan Proust
TTITLE1=Amsterdam
TTITLE2=Les imbéciles
TTITLE3=Lady Barbarella
TTITLE4=Je m'emmerde
TTITLE5=Les animaux
TTITLE6=Machine
TTITLE7=Fragile
TTITLE8=Match de Boxe
TTITLE9=Il fait beau
TTITLE10=Tous des voyoux
EXTD=
EXTT0=
EXTT1=
EXTT2=
EXTT3=
EXTT4=
EXTT5=
EXTT6=
EXTT7=
EXTT8=
EXTT9=
EXTT10=
PLAYORDER=
